PathFileType  4	(X/Y/Z) C:\Users\15086\Documents\NMBL_Research\NordBoard_Files\K_Nord_Zeroed\
DataRate	CameraRate	NumFrames	NumMarkers	Units	OrigDataRate	OrigDataStartFrame	OrigNumFrames
  200.0		  200.0		   4		     52		 mm	  200.0	      1	   1912
Frame#	Time	C7			R_Shoulder			L_Shoulder			Sternum			R_humerus			R_elbow_med			R_elbow_lat			R_forearm			R_wrist_radius			R_wrist_ulna			L_humerus			L_elbow_med			L_elbow_lat			L_forearm			L_wrist_radius			L_wrist_ulna			r.ASIS			r.PSIS			r_IC			L.ASIS			L.PSIS			l_IC			r_thigh1			r_thigh2			r_thigh3			r_thigh4			r_thigh5			r_knee			r_mknee			r_shank_antsup			r_sh2			r_sh3			r_sh4			r_ankle			r_mankle			r_calc			r_5meta			r_toe			L_thigh1			L_thigh2			L_thigh3			L_thigh4			L_knee			L_mknee			L_shank_antsup			L_sh2			L_sh3			L_ankle			L_mankle			L_calc			L_5meta			L_toe			
		X1	Y1	Z1	X2	Y2	Z2	X3	Y3	Z3	X4	Y4	Z4	X5	Y5	Z5	X6	Y6	Z6	X7	Y7	Z7	X8	Y8	Z8	X9	Y9	Z9	X10	Y10	Z10	X11	Y11	Z11	X12	Y12	Z12	X13	Y13	Z13	X14	Y14	Z14	X15	Y15	Z15	X16	Y16	Z16	X17	Y17	Z17	X18	Y18	Z18	X19	Y19	Z19	X20	Y20	Z20	X21	Y21	Z21	X22	Y22	Z22	X23	Y23	Z23	X24	Y24	Z24	X25	Y25	Z25	X26	Y26	Z26	X27	Y27	Z27	X28	Y28	Z28	X29	Y29	Z29	X30	Y30	Z30	X31	Y31	Z31	X32	Y32	Z32	X33	Y33	Z33	X34	Y34	Z34	X35	Y35	Z35	X36	Y36	Z36	X37	Y37	Z37	X38	Y38	Z38	X39	Y39	Z39	X40	Y40	Z40	X41	Y41	Z41	X42	Y42	Z42	X43	Y43	Z43	X44	Y44	Z44	X45	Y45	Z45	X46	Y46	Z46	X47	Y47	Z47	X48	Y48	Z48	X49	Y49	Z49	X50	Y50	Z50	X51	Y51	Z51	X52	Y52	Z52	

1	0.00000	1243.796	1277.339	-408.250	1360.783	1283.130	-458.353	1109.689	1290.728	-440.973	1229.720	1226.411	-534.628	1523.531	1245.605	-400.275	1657.330	1185.108	-445.692	1641.868	1222.267	-370.691	1637.572	1330.159	-436.185	1585.907	1393.685	-539.692	1645.538	1416.615	-510.006	950.120	1249.468	-366.997	793.007	1215.546	-422.477	817.315	1264.240	-351.032	848.040	1348.968	-402.085	871.180	1435.903	-490.564	939.747	1407.017	-482.201	1349.038	747.971	-466.913	1314.660	869.944	-317.234	1394.976	848.416	-412.908	1121.085	742.834	-446.104	1200.598	872.112	-306.185	1091.455	845.789	-415.931	1367.608	509.545	-428.329	1361.358	394.245	-405.082	1398.243	372.740	-368.719	1424.577	526.430	-337.412	1414.699	411.413	-315.069	1398.156	307.491	-303.819	1272.707	309.889	-292.082	1418.455	307.207	-196.214	1422.916	313.087	-74.080	1419.606	384.301	-197.170	1406.523	392.840	-80.349	1417.540	353.936	88.309	1340.526	326.624	85.325	1346.942	420.730	94.756	1419.752	284.186	205.725	1383.820	232.424	188.195	1044.548	550.738	-369.184	1031.625	414.703	-337.904	1050.881	580.640	-254.139	1058.774	443.832	-228.010	1031.793	336.934	-257.986	1160.672	310.052	-259.999	1022.890	319.324	-162.176	1038.362	407.732	-167.573	1043.899	404.718	-46.978	1074.864	371.319	116.667	1149.011	341.384	108.656	1120.417	428.475	124.468	1093.384	286.153	246.115	1126.733	244.289	217.821
2	0.00500	1243.353	1277.097	-408.610	1360.752	1283.017	-458.522	1109.568	1290.684	-441.351	1229.714	1226.325	-534.817	1523.652	1245.629	-400.348	1657.306	1184.982	-445.772	1641.824	1222.140	-370.800	1637.614	1330.184	-436.144	1585.862	1393.661	-539.829	1645.524	1416.501	-510.083	950.101	1249.436	-367.232	792.999	1215.527	-422.637	817.310	1264.215	-351.196	848.044	1348.927	-402.288	871.136	1435.853	-490.790	939.704	1406.994	-482.413	1349.013	747.915	-467.065	1314.648	869.885	-317.390	1394.959	848.335	-413.053	1121.048	742.812	-446.265	1200.601	872.036	-306.343	1091.389	845.765	-416.068	1367.595	509.529	-428.573	1361.136	393.991	-405.059	1398.242	372.702	-368.749	1424.588	526.436	-337.483	1414.685	411.401	-315.129	1398.190	307.393	-303.856	1272.684	309.882	-292.089	1418.436	307.165	-196.244	1422.967	313.077	-74.123	1419.650	384.293	-197.231	1406.615	392.989	-80.355	1416.717	353.634	88.167	1340.605	326.535	85.285	1347.037	420.645	94.703	1419.828	284.145	205.674	1384.025	232.210	188.127	1044.499	550.710	-369.260	1031.607	414.669	-337.967	1050.843	580.674	-254.206	1058.769	443.881	-228.013	1031.838	336.855	-258.017	1160.688	310.044	-260.008	1022.880	319.311	-162.166	1038.368	407.689	-167.542	1043.672	404.544	-47.374	1074.873	371.317	116.671	1149.065	341.259	108.691	1120.374	428.429	124.467	1093.468	286.049	246.081	1126.794	244.294	217.824
3	0.01000	1243.327	1276.985	-408.880	1360.727	1282.928	-458.711	1109.562	1290.599	-441.533	1229.668	1226.382	-534.924	1523.654	1245.438	-400.467	1657.302	1184.817	-445.801	1641.792	1222.021	-370.888	1637.663	1330.144	-436.193	1586.350	1393.007	-540.020	1645.540	1416.346	-510.185	950.129	1249.322	-367.434	792.985	1215.508	-422.805	817.303	1264.226	-351.362	848.067	1348.828	-402.475	871.108	1435.837	-491.001	939.683	1406.971	-482.624	1348.995	747.847	-467.197	1314.622	869.855	-317.579	1394.957	848.268	-413.251	1121.010	742.692	-446.359	1200.609	871.953	-306.516	1091.323	845.700	-416.215	1367.570	509.453	-428.467	1361.297	394.114	-405.083	1398.198	372.648	-368.831	1424.562	526.418	-337.636	1414.661	411.372	-315.227	1398.238	307.306	-303.891	1272.702	309.888	-292.105	1418.474	307.157	-196.264	1422.948	313.039	-74.161	1419.545	383.982	-197.298	1406.572	392.859	-80.430	1416.475	353.884	88.157	1340.643	326.621	85.295	1347.112	420.638	94.678	1419.990	284.091	205.642	1384.073	232.264	188.135	1044.479	550.656	-369.297	1031.627	414.258	-338.283	1050.841	580.661	-254.248	1058.851	443.880	-228.015	1031.900	336.768	-258.026	1160.676	310.024	-259.995	1022.889	319.300	-162.196	1038.380	407.695	-167.541	1043.948	404.728	-46.950	1074.849	371.270	116.628	1149.093	341.063	108.791	1120.386	428.406	124.492	1093.484	286.100	246.100	1126.742	244.290	217.830
4	0.01500	1243.301	1276.874	-409.133	1360.703	1282.796	-458.923	1109.570	1290.507	-441.730	1229.640	1226.256	-535.154	1523.674	1245.277	-400.606	1657.284	1184.672	-445.867	1641.759	1221.910	-370.972	1637.554	1329.987	-436.316	1586.327	1392.942	-540.129	1645.545	1416.236	-510.272	950.149	1249.229	-367.630	792.928	1215.511	-422.980	817.267	1264.206	-351.540	848.043	1348.788	-402.675	871.083	1435.807	-491.199	939.654	1406.942	-482.827	1348.957	747.777	-467.340	1314.612	869.784	-317.740	1394.943	848.180	-413.398	1120.952	742.688	-446.488	1200.611	871.898	-306.691	1091.276	845.673	-416.382	1367.485	509.379	-428.562	1360.985	393.746	-405.183	1398.203	372.606	-368.889	1424.553	526.383	-337.736	1414.687	411.326	-315.318	1398.243	307.219	-303.874	1272.697	309.871	-292.139	1418.511	307.105	-196.315	1423.011	313.046	-74.204	1419.575	383.938	-197.361	1406.729	392.967	-80.522	1416.552	353.779	88.109	1340.715	326.571	85.276	1347.196	420.564	94.628	1420.084	284.068	205.584	1384.188	232.244	188.160	1044.442	550.620	-369.364	1031.583	414.542	-337.901	1050.820	580.647	-254.285	1058.781	443.867	-228.034	1032.046	336.812	-258.104	1160.649	310.000	-259.987	1022.885	319.281	-162.182	1038.370	407.660	-167.548	1043.719	404.523	-47.354	1074.850	371.281	116.652	1149.182	340.912	108.765	1120.400	428.408	124.484	1093.515	286.045	246.111	1126.778	244.287	217.828
